<svg id="P" xmlns="http://www.w3.org/2000/svg" viewBox="0 0 522.66 958.79"><defs><style>.cls-1{fill:#f8d237;}.cls-1,.cls-2,.cls-3{stroke:#000;stroke-miterlimit:10;stroke-width:10px;}.cls-2{fill:#1b427a;}.cls-3{fill:#aa232c;}</style></defs><title>logo-pji</title><polygon class="cls-1" points="5 257.92 5 950.58 113.11 894.61 113.11 318.52 187.82 282.1 187.82 423.73 139.45 447.3 139.45 613.14 269.07 549.68 269.07 130.93 5 257.92"/><polygon class="cls-2" points="140.66 637.23 140.66 881.18 390.87 759.21 390.87 69.81 299.08 114.56 299.08 645.54 220.22 683.37 220.22 598.33 140.66 637.23"/><polygon class="cls-3" points="418.67 56.26 418.67 130.93 517.66 82.76 517.66 8 418.67 56.26"/><polygon class="cls-3" points="418.67 154.58 418.67 204.43 517.66 156.18 517.66 106.32 418.67 154.58"/><polygon class="cls-3" points="418.67 227.82 517.66 179.56 517.66 697.36 418.67 745.65 418.67 227.82"/></svg>