<svg id="Layer_1" data-name="Layer 1" xmlns="http://www.w3.org/2000/svg" viewBox="0 0 250 250"><defs><style>.cls-1,.cls-3,.cls-4{fill:#f9fafc;}.cls-2{fill:#d2d3d3;}.cls-3,.cls-4{stroke:#d2d3d3;stroke-miterlimit:10;}.cls-3{stroke-width:8px;}.cls-4{stroke-width:5px;}</style></defs><title>thumbnail-item</title><path class="cls-1" d="M98.92,143.94l11.16,11.16,35.71-35.71L183,145.23V83.16a2.26,2.26,0,0,0-2.23-2.23H69.16a2.26,2.26,0,0,0-2.23,2.23V168a2.14,2.14,0,0,0,.66,1.57l0.19,0.16,6.38-5.28Z"/><path class="cls-2" d="M188.65,75.28A10.75,10.75,0,0,0,180.77,72H69.16A11.19,11.19,0,0,0,58,83.16V168a11.19,11.19,0,0,0,11.16,11.16h111.6A11.19,11.19,0,0,0,191.92,168V83.16A10.75,10.75,0,0,0,188.65,75.28Zm-1.08,99.63-111.86-.34H62l5.81-4.81-0.18-.19a2.14,2.14,0,0,1-.66-1.57V83.16a2.26,2.26,0,0,1,2.23-2.23h111.6A2.26,2.26,0,0,1,183,83.16v62.07l4.57,3.18v26.5h0Z"/><path class="cls-3" d="M184.84,174.11a2.4,2.4,0,0,0,2.37-2.37V147.57L147.7,120.12l-37.93,37.93L97.91,146.2,71.6,168l-6.78,5.61a2.24,2.24,0,0,0,1.47.54H184.84Z"/><path class="cls-2" d="M183,168a2.26,2.26,0,0,1-2.23,2.23H69.16a2.11,2.11,0,0,1-1.38-.51L62,174.51l13.74,0.06,111.86,0.35v-26.5L183,145.24V168h0Z"/><path class="cls-4" d="M108.23,99.76a13.47,13.47,0,1,1-9.52-3.9A12.92,12.92,0,0,1,108.23,99.76Z"/><path class="cls-1" d="M0,0V250H250V0H0ZM191.92,168a11.19,11.19,0,0,1-11.16,11.16H69.16A11.19,11.19,0,0,1,58,168V83.16A11.19,11.19,0,0,1,69.16,72H180.77a11.18,11.18,0,0,1,11.15,11.16V168Z"/></svg>